<?xml version="1.0" encoding="UTF-8"?>
<svg id="Layer_1" xmlns="http://www.w3.org/2000/svg" version="1.1" viewBox="0 0 1080 254.5170135">
  <!-- Generator: Adobe Illustrator 29.5.1, SVG Export Plug-In . SVG Version: 2.1.0 Build 141)  -->
  <defs>
    <style>
      .st0 {
        fill: #f7f5ed;
      }
    </style>
  </defs>
  <path class="st0" d="M659.1029663,193.8570099l17.7180176-8.835022v-106.6934967l-17.7180176-8.9324799v-8.9325027h44.5635681v23.3115005h2.0609436c2.944519-8.2934875,15.5565491-23.3115005,39.457489-23.3115005,16.5390015,0,25.864563,4.2705002,32.8335571,12.7605057,6.9689941,8.3429718,10.4534912,20.9564667,10.4534912,37.7894897v74.0084839l17.7164612,8.835022v5.25h-61.7879333v-5.25l17.2259216-8.835022v-72.4379883c0-26.5514832-11.5829773-32.5875092-27.1394348-32.5875092-14.3805542,0-30.8204956,7.1655121-30.8204956,23.9984894v81.0765381l17.2259216,8.8334656v5.2515106h-61.7894897v-5.2994843Z"/>
  <path class="st0" d="M592.2690125,202.2480011c-61.3965454,0-63.2610168-59.3834839-63.2610168-70.7205048,0-10.7475128,1.4715271-20.4645081,4.4160461-29.1030121,6.0374451-17.7659912,17.9624634-29.8874817,32.2934875-36.4154663,17.2260132-7.8030167,37.5434875-5.4480286,49.7639465-.5400238,13.1535645,5.3009949,24.5385132,16.147522,30.4769897,32.7344971,2.7975769,7.8045044,4.1715088,16.4414978,4.1715088,26.0115051v7.0185242l-89.8109436,10.5509949v3.5339813c0,24.7349854,19.4339905,36.6119843,37.7399597,36.6119843s31.1160278-7.7054901,38.0354919-23.1149597l11.190033,6.7724762c-3.6810608,10.6005249-10.6500549,19.1400146-18.2579956,24.9315033-7.6064758,5.789978-19.6305542,11.680481-36.7095337,11.680481l-.0479736.0480194ZM560.2695007,129.9570007l59.6294861-13.3980103v-2.8469696c0-12.4650421-2.4044495-21.1515198-7.3125-27.8760223-4.7114868-6.9195099-11.9744568-10.404007-21.88797-10.404007-17.3249817,0-30.4290161,11.533493-30.4290161,38.7225037v15.8519897-.0494843ZM543.3390198,41.8634949L581.3729553,0h18.7485352l38.0340271,41.8634949-3.4350586,6.2324982-43.9739685-27.6299973-43.9725037,27.6299973-3.434967-6.2324982Z"/>
  <path class="st0" d="M491.3175201,38.3294907c-5.5950165,0-9.9135132-1.5704956-13.0545044-4.7114868-3.141037-3.288002-4.7115326-7.4609985-4.7115326-12.5160141v-1.5704956c0-5.0535049,1.5704956-9.1274872,4.7115326-12.2685013,3.1409912-3.288002,7.5074615-4.957489,13.0545044-4.957489,5.5454865,0,9.9134674,1.669487,13.0544586,4.957489,3.1409912,3.1410141,4.7114868,7.2149963,4.7114868,12.2685013v1.5704956c0,5.0550156-1.5704956,9.2280121-4.7114868,12.5160141-3.1409912,3.1409912-7.5089722,4.7114868-13.0544586,4.7114868ZM460.1039886,193.8554993l17.7659912-8.8335114v-106.6950073l-17.7659912-8.9324799v-8.8829956h44.5619659v124.5600128l17.7660828,8.8334656v5.2515106h-62.377533v-5.2515106l.0494843-.0494843Z"/>
  <path class="st0" d="M306.1469879,194.7885132l17.6670227-9.7665253V17.8634949l-17.6670227-8.9309921V0h44.5125275v83.7269897h2.0609894c7.1655121-13.742981,20.2695007-23.3129883,39.2624817-23.3129883,31.6544952,0,44.1194916,22.477478,44.1194916,50.7464905v73.861496l17.6685333,8.7854919v5.2515106h-62.5740051v-4.2704773l18.0614777-9.7665253v-72.2910004c0-23.9490051-10.4054718-32.4884949-27.9255066-32.4884949-12.269989,0-30.6734619,7.1640015-30.6734619,23.8995209v80.8799744l17.1764832,9.7665253v4.2704773h-61.6409912v-4.2704773h-.0480194Z"/>
  <path class="st0" d="M0,194.7885132l18.9930038-9.7665253V31.7040024L0,24.2444916v-6.5759811h53.0519943l88.879509,138.5459976h1.3244934V31.7040024l-18.0600128-8.9309921v-5.1044998h54.9179993v5.1044998l-18.992981,8.9309921v167.4045181h-24.1455231L38.2320099,44.9550018h-1.326004v140.1165161l18.0599899,9.7664795v4.2705231H.0495071v-4.2705231l-.0495071-.0494843Z"/>
  <path class="st0" d="M1005.7380066,0v198.8129883h-43.6785278V0h43.6785278Z"/>
  <path class="st0" d="M1080,0v198.8129883h-43.6785278V0h43.6785278Z"/>
  <path class="st0" d="M962.0669861,0l-38.7209473,99.430481-38.7225037,99.4320374h-47.9490051L914.1195374,0h47.9474487Z"/>
  <path class="st0" d="M233.1719971,254.5170135c-11.4344788,0-21.1019897-.786026-28.9049835-2.3565216-32.2935333-6.4769897-32.0475311-22.9679718-32.0475311-28.9064941,0-3.9749908,2.4044952-20.5139923,28.3665161-26.305481v-1.0305176c-5.7420044-1.5704956-10.1595154-4.3184967-13.3005066-8.3430176-3.1409912-3.9749908-4.7114868-9.0299835-4.7114868-15.1154938,0-7.4594879,2.3564758-13.3005066,7.0184784-17.4719696,4.8585205-4.1715088,10.6005249-7.1160278,17.1765289-8.8335114v-1.0305176c-16.0965271-6.7245026-27.0899963-19.3859711-27.0899963-39.8519897,0-14.3295135,6.0854645-25.4700165,15.1154938-32.8320007,8.3925018-6.8220062,20.6609802-11.7299881,39.0660095-11.7299881,16.4894714,0,25.5195007,3.6809921,34.6484985,9.1289749,5.1524963,3.091507,11.0909729,8.3925018,16.3919678,18.2070007,2.4525146,4.5150146,3.6315308,10.257019,3.6315308,17.1779938,0,30.5265198-23.9010315,38.917511-32.8335114,41.6670227-14.3789978,4.4160004-26.5019989,3.6795044-38.2799835,1.3244934-3.6315308,1.2269897-6.772522,3.0434875-9.3735352,5.4479828-5.0549927,4.7115326-5.497467,14.1345062.5400238,17.4705048,3.1409912,1.7189941,8.2440033,2.6025238,15.361496,2.6025238h30.4769897c34.0589905,0,48.1934967,14.3295135,48.1934967,37.0035095,0,22.5269623-16.7850037,43.7279663-69.5429993,43.7279663l.0975037.04953ZM196.7085114,220.8989868c0,6.4290161,2.6984711,11.190033,8.0969696,14.3310242s13.0065308,4.7114868,22.9199982,4.7114868h14.085022c11.8275146,0,20.8574982-1.9140015,27.0899963-5.7420044,6.430481-3.6329956,9.6194916-8.8349762,9.6194916-15.6074982,0-6.2324982-2.158493-12.5144806-6.526474-15.3120117-4.1715088-2.7974854-11.0429993-4.171463-20.5635223-4.171463h-42.2070007c-8.3429718,4.3184967-12.5144806,10.0109711-12.5144806,21.7904663ZM234.2039795,135.1604919c8.3430176,0,17.1765289-1.3739777,21.3480377-5.8889923,4.171463-4.5150146,6.2324982-11.0429993,6.2324982-19.5330048v-8.588974c0-8.4900055-2.0610352-15.0180359-6.2324982-19.5330048-4.1715088-4.5150146-13.0545044-6.1830139-21.3480377-6.1830139-8.2949982,0-17.1779938,1.6679993-21.3494568,6.1830139-4.1715088,4.5149689-6.2325439,11.0429993-6.2325439,19.5330048v8.588974c0,8.4900055,2.0610352,15.0179901,6.2325439,19.5330048,4.171463,4.5150146,13.0544586,5.8889923,21.3494568,5.8889923Z"/>
  <path class="st0" d="M261.1934967,65.8125l39.1635132-9.8160095v22.3304901h-39.1635132v-12.5144806Z"/>
</svg>