<svg width="1080" height="600" viewBox="0 0 1080 600" fill="none" xmlns="http://www.w3.org/2000/svg">
<rect width="1080" height="600" fill="#FF623B"></rect>
<path d="M619.402 344.238L631.214 338.348V267.219L619.402 261.264V255.309H649.111V270.85H650.485C652.448 265.321 660.856 255.309 676.79 255.309C687.816 255.309 694.033 258.156 698.679 263.816C703.325 269.378 705.648 277.787 705.648 289.009V338.348L717.459 344.238V347.738H676.267V344.238L687.751 338.348V290.056C687.751 272.355 680.029 268.331 669.658 268.331C660.071 268.331 649.111 273.108 649.111 284.33V338.381L660.595 344.27V347.771H619.402V344.27V344.238Z" fill="#F7F5ED"></path>
<path d="M574.846 349.832C533.915 349.832 532.672 310.243 532.672 302.685C532.672 295.52 533.653 289.042 535.616 283.283C539.641 271.439 547.591 263.358 557.145 259.006C568.629 253.804 582.174 255.374 590.321 258.646C599.09 262.18 606.68 269.411 610.639 280.469C612.504 285.672 613.42 291.43 613.42 297.81V302.489L553.546 309.523V311.879C553.546 328.369 566.502 336.287 578.706 336.287C590.91 336.287 599.45 331.15 604.063 320.877L611.523 325.392C609.069 332.459 604.423 338.152 599.351 342.013C594.28 345.873 586.264 349.8 574.878 349.8L574.846 349.832ZM553.513 301.638L593.266 292.706V290.808C593.266 282.498 591.663 276.707 588.391 272.224C585.25 267.611 580.408 265.288 573.799 265.288C562.249 265.288 553.513 272.977 553.513 291.103V301.671V301.638ZM542.226 242.909L567.582 215H580.081L605.437 242.909L603.147 247.064L573.831 228.644L544.516 247.064L542.226 242.909Z" fill="#F7F5ED"></path>
<path d="M507.545 240.553C503.815 240.553 500.936 239.506 498.842 237.412C496.748 235.22 495.701 232.438 495.701 229.068V228.021C495.701 224.652 496.748 221.936 498.842 219.842C500.936 217.65 503.847 216.537 507.545 216.537C511.242 216.537 514.154 217.65 516.248 219.842C518.342 221.936 519.389 224.652 519.389 228.021V229.068C519.389 232.438 518.342 235.22 516.248 237.412C514.154 239.506 511.242 240.553 507.545 240.553ZM486.736 344.237L498.58 338.348V267.218L486.736 261.263V255.341H516.444V338.381L528.288 344.27V347.771H486.703V344.27L486.736 344.237Z" fill="#F7F5ED"></path>
<path d="M384.098 344.859L395.876 338.348V226.909L384.098 220.955V215H413.773V270.818H415.147C419.924 261.656 428.66 255.276 441.322 255.276C462.425 255.276 470.735 270.261 470.735 289.107V338.348L482.514 344.205V347.706H440.798V344.859L452.839 338.348V290.154C452.839 274.188 445.902 268.495 434.222 268.495C426.042 268.495 413.773 273.271 413.773 284.428V338.348L425.224 344.859V347.706H384.13V344.859H384.098Z" fill="#F7F5ED"></path>
<path d="M180 344.859L192.662 338.348V236.136L180 231.163V226.779H215.368L274.621 319.143H275.504V236.136L263.464 230.182V226.779H300.076V230.182L287.414 236.136V347.739H271.317L205.488 244.97H204.604V338.381L216.644 344.892V347.739H180.033V344.892L180 344.859Z" fill="#F7F5ED"></path>
<path d="M850.492 215V347.542H821.373V215H850.492Z" fill="#F7F5ED"></path>
<path d="M900 215V347.542H870.881V215H900Z" fill="#F7F5ED"></path>
<path d="M821.378 215L795.564 281.287L769.749 347.575H737.783L789.413 215H821.378Z" fill="#F7F5ED"></path>
<path d="M335.448 384.678C327.825 384.678 321.38 384.154 316.178 383.107C294.649 378.789 294.813 367.795 294.813 363.836C294.813 361.186 296.416 350.16 313.724 346.299V345.612C309.896 344.565 306.951 342.733 304.857 340.05C302.763 337.4 301.716 334.03 301.716 329.973C301.716 325 303.287 321.106 306.395 318.325C309.634 315.544 313.462 313.581 317.846 312.436V311.749C307.115 307.266 299.786 298.825 299.786 285.181C299.786 275.628 303.843 268.201 309.863 263.293C315.458 258.745 323.637 255.473 335.907 255.473C346.9 255.473 352.92 257.927 359.006 261.559C362.441 263.62 366.4 267.154 369.934 273.697C371.569 276.707 372.355 280.535 372.355 285.149C372.355 305.5 356.421 311.094 350.466 312.927C340.88 315.871 332.798 315.38 324.946 313.81C322.525 314.628 320.431 315.839 318.697 317.442C315.327 320.583 315.032 326.865 319.057 329.089C321.151 330.235 324.553 330.824 329.298 330.824H349.616C372.322 330.824 381.745 340.377 381.745 355.493C381.745 370.511 370.555 384.645 335.383 384.645L335.448 384.678ZM311.139 362.266C311.139 366.552 312.938 369.726 316.537 371.82C320.136 373.914 325.208 374.961 331.817 374.961H341.207C349.092 374.961 355.112 373.685 359.267 371.133C363.554 368.711 365.68 365.243 365.68 360.728C365.68 356.573 364.241 352.385 361.329 350.52C358.548 348.655 353.967 347.739 347.62 347.739H319.482C313.92 350.618 311.139 354.413 311.139 362.266ZM336.136 305.107C341.698 305.107 347.587 304.191 350.368 301.181C353.149 298.171 354.523 293.819 354.523 288.159V282.433C354.523 276.773 353.149 272.421 350.368 269.411C347.587 266.401 341.665 265.289 336.136 265.289C330.606 265.289 324.684 266.401 321.903 269.411C319.122 272.421 317.748 276.773 317.748 282.433V288.159C317.748 293.819 319.122 298.171 321.903 301.181C324.684 304.191 330.606 305.107 336.136 305.107Z" fill="#F7F5ED"></path>
<path d="M354.129 258.875L380.238 252.331V267.218H354.129V258.875Z" fill="#F7F5ED"></path>
</svg>